<?xml version="1.0" standalone="no"?>
<!DOCTYPE svg PUBLIC "-//W3C//DTD SVG 20010904//EN"
 "http://www.w3.org/TR/2001/REC-SVG-20010904/DTD/svg10.dtd">
<svg version="1.0" xmlns="http://www.w3.org/2000/svg"
 width="64.000000pt" height="64.000000pt" viewBox="0 0 64.000000 64.000000"
 preserveAspectRatio="xMidYMid meet">

<g transform="translate(0.000000,64.000000) scale(0.100000,-0.100000)"
fill="#000000" stroke="none">
<path d="M273 570 c-43 -10 -99 -53 -120 -93 -22 -42 -22 -132 0 -175 10 -18
36 -45 57 -60 43 -29 53 -62 20 -62 -26 0 -27 -43 -2 -62 9 -7 22 -22 28 -33
16 -29 112 -29 128 0 6 11 19 26 29 33 24 19 23 62 -3 62 -31 0 -24 33 10 54
81 47 111 169 61 249 -43 70 -130 107 -208 87z m124 -26 c117 -56 124 -238 10
-299 -26 -14 -37 -27 -37 -42 0 -16 -6 -23 -20 -23 -15 0 -20 7 -20 25 0 14
-4 25 -10 25 -5 0 -10 -11 -10 -25 0 -18 -5 -25 -20 -25 -14 0 -20 7 -20 24 0
17 -9 27 -31 36 -16 7 -42 29 -57 48 -23 30 -27 45 -27 102 0 57 4 72 27 102
49 65 140 87 215 52z m13 -399 c0 -12 -17 -15 -90 -15 -73 0 -90 3 -90 15 0
12 17 15 90 15 73 0 90 -3 90 -15z m-40 -50 c0 -11 -12 -15 -50 -15 -38 0 -50
4 -50 15 0 11 12 15 50 15 38 0 50 -4 50 -15z"/>
<path d="M301 493 c-5 -10 -21 -17 -38 -18 -23 0 -28 -4 -27 -25 1 -13 -8 -32
-20 -42 -21 -18 -21 -18 -1 -33 10 -8 19 -28 20 -43 0 -22 4 -27 25 -26 13 1
32 -8 42 -20 18 -21 18 -21 33 -1 8 10 28 19 43 20 22 0 27 4 26 25 -1 13 8
32 20 42 l21 18 -21 18 c-12 10 -21 29 -20 42 1 21 -4 25 -24 24 -14 -1 -31 7
-38 17 -16 24 -28 24 -41 2z m37 -23 c10 -16 17 -18 31 -11 23 13 33 4 21 -20
-8 -14 -5 -21 12 -33 l22 -16 -22 -16 c-17 -12 -20 -19 -12 -33 12 -23 2 -33
-21 -21 -14 8 -21 5 -33 -12 l-16 -22 -16 22 c-12 17 -19 20 -33 12 -23 -12
-33 -2 -21 21 8 14 5 21 -12 33 l-22 16 22 16 c17 12 20 19 12 33 -12 24 -2
33 21 20 14 -7 21 -5 31 11 7 11 15 20 18 20 3 0 11 -9 18 -20z"/>
</g>
</svg>
